<svg xmlns="http://www.w3.org/2000/svg" xmlns:xlink="http://www.w3.org/1999/xlink" width="500" zoomAndPan="magnify" viewBox="0 0 375 374.999991" height="500" preserveAspectRatio="xMidYMid meet" version="1.0"><defs><clipPath id="c1d6e67649"><path d="M 241 63.148438 L 365.46875 63.148438 L 365.46875 196 L 241 196 Z M 241 63.148438 " clip-rule="nonzero"/></clipPath><clipPath id="b6fb3ec017"><path d="M 9.21875 294 L 354 294 L 354 312.148438 L 9.21875 312.148438 Z M 9.21875 294 " clip-rule="nonzero"/></clipPath></defs><path fill="#737373" d="M 206.058594 159.464844 C 206.859375 160.269531 207.621094 161.109375 208.339844 161.988281 C 209.058594 162.867188 209.734375 163.777344 210.363281 164.722656 C 210.992188 165.667969 211.574219 166.640625 212.109375 167.644531 C 212.644531 168.644531 213.128906 169.671875 213.5625 170.722656 C 213.996094 171.773438 214.378906 172.839844 214.707031 173.929688 C 215.039062 175.015625 215.3125 176.117188 215.535156 177.230469 C 215.753906 178.347656 215.921875 179.46875 216.03125 180.601562 C 216.144531 181.730469 216.199219 182.863281 216.199219 184 C 216.199219 185.136719 216.144531 186.269531 216.03125 187.402344 C 215.921875 188.535156 215.753906 189.65625 215.535156 190.769531 C 215.3125 191.886719 215.039062 192.988281 214.707031 194.074219 C 214.378906 195.160156 214 196.230469 213.5625 197.28125 C 213.128906 198.332031 212.644531 199.355469 212.109375 200.359375 C 211.578125 201.359375 210.996094 202.335938 210.363281 203.28125 C 209.734375 204.222656 209.058594 205.136719 208.339844 206.015625 C 207.621094 206.894531 206.859375 207.734375 206.058594 208.539062 C 205.257812 209.339844 204.417969 210.105469 203.539062 210.824219 C 202.664062 211.546875 201.753906 212.222656 200.8125 212.851562 C 199.867188 213.484375 198.894531 214.070312 197.894531 214.605469 C 196.894531 215.140625 195.871094 215.625 194.824219 216.058594 C 193.777344 216.496094 192.710938 216.878906 191.625 217.207031 C 190.539062 217.539062 189.441406 217.8125 188.328125 218.035156 C 187.214844 218.257812 186.09375 218.421875 184.964844 218.535156 C 183.835938 218.644531 182.707031 218.703125 181.574219 218.703125 C 180.4375 218.703125 179.308594 218.644531 178.179688 218.535156 C 177.050781 218.421875 175.929688 218.257812 174.816406 218.035156 C 173.703125 217.8125 172.605469 217.539062 171.519531 217.207031 C 170.433594 216.878906 169.367188 216.496094 168.320312 216.0625 C 167.273438 215.625 166.25 215.140625 165.25 214.605469 C 164.25 214.070312 163.277344 213.484375 162.332031 212.855469 C 161.390625 212.222656 160.480469 211.546875 159.605469 210.824219 C 158.726562 210.105469 157.886719 209.34375 157.085938 208.539062 C 156.285156 207.734375 155.523438 206.894531 154.804688 206.015625 C 154.085938 205.136719 153.410156 204.226562 152.78125 203.28125 C 152.148438 202.335938 151.566406 201.363281 151.03125 200.359375 C 150.5 199.359375 150.015625 198.332031 149.578125 197.28125 C 149.144531 196.230469 148.765625 195.164062 148.433594 194.074219 C 148.105469 192.988281 147.832031 191.886719 147.609375 190.773438 C 147.386719 189.65625 147.222656 188.535156 147.109375 187.402344 C 147 186.273438 146.945312 185.140625 146.945312 184.003906 C 146.945312 182.867188 147 181.730469 147.109375 180.601562 C 147.222656 179.46875 147.386719 178.347656 147.609375 177.234375 C 147.832031 176.117188 148.105469 175.015625 148.433594 173.929688 C 148.765625 172.839844 149.144531 171.773438 149.578125 170.722656 C 150.011719 169.671875 150.496094 168.648438 151.03125 167.644531 C 151.566406 166.640625 152.148438 165.667969 152.777344 164.722656 C 153.410156 163.777344 154.082031 162.867188 154.804688 161.988281 C 155.523438 161.109375 156.285156 160.269531 157.085938 159.464844 C 157.886719 158.660156 158.726562 157.898438 159.601562 157.179688 C 160.480469 156.457031 161.390625 155.78125 162.332031 155.148438 C 163.277344 154.519531 164.246094 153.933594 165.246094 153.398438 C 166.246094 152.863281 167.273438 152.378906 168.320312 151.941406 C 169.367188 151.507812 170.433594 151.125 171.519531 150.796875 C 172.605469 150.464844 173.703125 150.191406 174.816406 149.96875 C 175.929688 149.746094 177.046875 149.578125 178.175781 149.46875 C 179.304688 149.355469 180.4375 149.300781 181.570312 149.300781 C 182.707031 149.300781 183.835938 149.355469 184.964844 149.46875 C 186.09375 149.578125 187.214844 149.746094 188.328125 149.96875 C 189.4375 150.191406 190.539062 150.464844 191.625 150.796875 C 192.707031 151.125 193.773438 151.507812 194.824219 151.941406 C 195.871094 152.378906 196.894531 152.863281 197.894531 153.398438 C 198.894531 153.933594 199.867188 154.519531 200.808594 155.148438 C 201.753906 155.78125 202.664062 156.457031 203.539062 157.175781 C 204.414062 157.898438 205.253906 158.660156 206.058594 159.464844 Z M 206.058594 159.464844 " fill-opacity="1" fill-rule="nonzero"/><path fill="#737373" d="M 310.316406 196.367188 C 308.035156 196.589844 305.746094 196.699219 303.425781 196.699219 C 302.699219 196.699219 301.980469 196.691406 301.265625 196.660156 L 301.265625 278.53125 L 241.738281 278.53125 L 241.738281 263.269531 C 241.738281 242.789062 225.164062 226.183594 204.726562 226.183594 L 158.554688 226.183594 C 138.117188 226.183594 121.542969 242.789062 121.542969 263.269531 L 121.542969 278.53125 L 62.925781 278.53125 L 62.925781 139.597656 C 62.925781 134.5 67.0625 130.355469 72.148438 130.355469 L 232.339844 130.355469 C 232.21875 128.664062 232.160156 126.976562 232.160156 125.265625 C 232.160156 123.933594 232.199219 122.605469 232.269531 121.28125 L 72.140625 121.28125 C 62.046875 121.28125 53.863281 129.484375 53.863281 139.597656 L 53.863281 287.601562 L 310.316406 287.601562 Z M 310.316406 196.367188 " fill-opacity="1" fill-rule="nonzero"/><g clip-path="url(#c1d6e67649)"><path fill="#737373" d="M 241.738281 195.566406 L 278.152344 182.015625 C 285.875 185.472656 294.433594 187.40625 303.433594 187.40625 C 337.679688 187.40625 365.433594 159.59375 365.433594 125.277344 C 365.433594 90.960938 337.679688 63.148438 303.433594 63.148438 C 269.191406 63.148438 241.433594 90.960938 241.433594 125.277344 C 241.433594 138.210938 245.382812 150.21875 252.132812 160.167969 Z M 336.890625 117.398438 C 342.515625 117.398438 347.074219 121.96875 347.074219 127.601562 C 347.074219 133.238281 342.515625 137.808594 336.890625 137.808594 C 331.269531 137.808594 326.707031 133.238281 326.707031 127.601562 C 326.707031 121.96875 331.269531 117.398438 336.890625 117.398438 Z M 303.425781 117.398438 C 309.046875 117.398438 313.609375 121.96875 313.609375 127.601562 C 313.609375 133.238281 309.046875 137.808594 303.425781 137.808594 C 297.804688 137.808594 293.242188 133.238281 293.242188 127.601562 C 293.242188 121.96875 297.804688 117.398438 303.425781 117.398438 Z M 269.96875 117.398438 C 275.589844 117.398438 280.152344 121.96875 280.152344 127.601562 C 280.152344 133.238281 275.589844 137.808594 269.96875 137.808594 C 264.347656 137.808594 259.785156 133.238281 259.785156 127.601562 C 259.785156 121.96875 264.347656 117.398438 269.96875 117.398438 Z M 269.96875 117.398438 " fill-opacity="1" fill-rule="nonzero"/></g><g clip-path="url(#b6fb3ec017)"><path fill="#737373" d="M 242.152344 300.222656 L 119.222656 300.222656 C 115.863281 300.222656 113.125 297.492188 113.125 294.117188 L 9.253906 294.117188 C 9.253906 304.078125 17.304688 312.148438 27.246094 312.148438 L 335.832031 312.148438 C 345.773438 312.148438 353.828125 304.078125 353.828125 294.117188 L 248.238281 294.117188 C 248.238281 297.484375 245.511719 300.222656 242.152344 300.222656 Z M 242.152344 300.222656 " fill-opacity="1" fill-rule="nonzero"/></g></svg>