<svg xmlns="http://www.w3.org/2000/svg" xmlns:xlink="http://www.w3.org/1999/xlink" width="500" zoomAndPan="magnify" viewBox="0 0 375 374.999991" height="500" preserveAspectRatio="xMidYMid meet" version="1.0"><defs><clipPath id="609fd60a6b"><path d="M 6 83 L 366 83 L 366 362 L 6 362 Z M 6 83 " clip-rule="nonzero"/></clipPath><clipPath id="6ba6d2fc5b"><path d="M 24.460938 37.5 L 382.789062 128.695312 L 321.5625 369.273438 L -36.765625 278.082031 Z M 24.460938 37.5 " clip-rule="nonzero"/></clipPath><clipPath id="e3dce43f7a"><path d="M 24.460938 37.5 L 382.789062 128.695312 L 321.5625 369.273438 L -36.765625 278.082031 Z M 24.460938 37.5 " clip-rule="nonzero"/></clipPath></defs><g clip-path="url(#609fd60a6b)"><g clip-path="url(#6ba6d2fc5b)"><g clip-path="url(#e3dce43f7a)"><path fill="#737373" d="M 362.605469 192.1875 L 205.464844 84.230469 C 204.300781 83.425781 202.878906 83.0625 201.46875 83.214844 L 11.839844 102.917969 C 9.355469 103.175781 7.296875 104.953125 6.679688 107.371094 C 6.066406 109.789062 7.023438 112.332031 9.085938 113.746094 L 84.28125 165.40625 L 66.34375 235.882812 C 60.421875 259.160156 99.070312 291.566406 147.4375 303.875 C 195.804688 316.183594 245.246094 306.195312 251.167969 282.917969 L 269.105469 212.445312 L 317.980469 207.367188 L 291.890625 309.882812 C 286.683594 310.589844 282.175781 314.34375 280.800781 319.738281 C 279.613281 324.410156 281.101562 329.101562 284.261719 332.304688 C 277.828125 334.707031 272.042969 341.429688 270.761719 346.457031 L 270.128906 348.945312 C 269.199219 352.601562 272.242188 356.5625 276.890625 357.746094 L 291.820312 361.542969 C 296.46875 362.726562 301.035156 360.703125 301.964844 357.046875 L 302.597656 354.558594 C 303.878906 349.53125 302.007812 340.863281 297.507812 335.675781 C 301.8125 334.371094 305.363281 330.964844 306.554688 326.292969 C 307.925781 320.894531 305.757812 315.441406 301.523438 312.335938 L 328.515625 206.269531 L 359.847656 203.015625 C 362.335938 202.757812 364.390625 200.980469 365.007812 198.5625 C 365.621094 196.148438 364.664062 193.601562 362.605469 192.1875 Z M 239.609375 279.976562 C 236.3125 292.933594 196.507812 304.078125 150.375 292.335938 C 104.238281 280.59375 74.605469 251.78125 77.902344 238.824219 L 94.757812 172.605469 L 166.222656 221.703125 C 166.804688 222.105469 167.453125 222.398438 168.128906 222.570312 C 168.808594 222.742188 169.515625 222.796875 170.21875 222.722656 L 256.460938 213.757812 Z M 331.585938 193.976562 L 198.136719 145.515625 C 197.582031 141.238281 194.503906 137.519531 190.0625 136.390625 C 184.253906 134.910156 178.347656 138.414062 176.871094 144.214844 C 175.398438 150.011719 178.910156 155.914062 184.71875 157.390625 C 188.414062 158.332031 192.140625 157.242188 194.746094 154.839844 L 308.984375 196.328125 L 171.164062 210.652344 L 29.167969 113.09375 L 200.523438 95.285156 L 342.523438 192.839844 Z M 331.585938 193.976562 " fill-opacity="1" fill-rule="nonzero"/></g></g></g></svg>