<svg xmlns="http://www.w3.org/2000/svg" xmlns:xlink="http://www.w3.org/1999/xlink" width="500" zoomAndPan="magnify" viewBox="0 0 375 74.999997" height="100" preserveAspectRatio="xMidYMid meet" version="1.0"><defs><g/></defs><g fill="#ffcf00" fill-opacity="1"><g transform="translate(12.065276, 53.04157)"><g><path d="M 4.300781 0 L 6.941406 0 C 7.238281 0 7.410156 -0.171875 7.410156 -0.46875 L 7.410156 -13.328125 C 7.410156 -16.90625 7.28125 -21.25 7.195312 -24.867188 L 7.28125 -24.910156 C 8.390625 -22.613281 9.710938 -20.097656 11.15625 -17.417969 L 16.480469 -7.539062 C 16.566406 -7.324219 16.777344 -7.195312 17.035156 -7.195312 L 19.289062 -7.195312 C 19.546875 -7.195312 19.757812 -7.324219 19.886719 -7.539062 L 25.210938 -17.417969 C 26.613281 -20.097656 27.933594 -22.613281 29.085938 -24.910156 L 29.171875 -24.867188 C 29.042969 -21.25 28.914062 -16.90625 28.914062 -13.328125 L 28.914062 -0.46875 C 28.914062 -0.171875 29.085938 0 29.382812 0 L 32.066406 0 C 32.363281 0 32.535156 -0.171875 32.535156 -0.46875 L 32.535156 -29.980469 C 32.535156 -30.277344 32.363281 -30.449219 32.066406 -30.449219 L 28.828125 -30.449219 C 28.574219 -30.449219 28.359375 -30.363281 28.277344 -30.105469 L 21.632812 -18.054688 C 20.566406 -16.140625 18.992188 -12.988281 18.226562 -11.371094 L 18.097656 -11.371094 C 17.332031 -12.988281 15.757812 -16.140625 14.691406 -18.097656 L 8.089844 -30.105469 C 7.964844 -30.363281 7.75 -30.449219 7.539062 -30.449219 L 4.300781 -30.449219 C 3.960938 -30.449219 3.789062 -30.277344 3.789062 -29.980469 L 3.789062 -0.46875 C 3.789062 -0.171875 3.960938 0 4.300781 0 Z M 4.300781 0 "/></g></g></g><g fill="#ffcf00" fill-opacity="1"><g transform="translate(50.518476, 53.04157)"><g><path d="M 20.097656 -9.835938 L 20.097656 -14.011719 C 20.097656 -19.84375 15.839844 -22.484375 11.199219 -22.484375 C 6.515625 -22.484375 2.171875 -19.84375 2.171875 -14.011719 L 2.171875 -7.539062 C 2.171875 -2.171875 6.558594 0.46875 11.15625 0.46875 C 14.734375 0.46875 17.460938 -0.808594 19.589844 -2.597656 C 19.84375 -2.808594 19.886719 -3.023438 19.671875 -3.277344 L 18.4375 -4.898438 C 18.269531 -5.152344 18.011719 -5.195312 17.757812 -5.023438 C 16.183594 -3.789062 14.179688 -2.640625 11.242188 -2.640625 C 8.089844 -2.640625 5.707031 -4.34375 5.707031 -7.539062 L 5.707031 -9.324219 L 19.632812 -9.324219 C 19.929688 -9.324219 20.097656 -9.496094 20.097656 -9.835938 Z M 16.691406 -14.011719 L 16.691406 -12.222656 L 5.707031 -12.222656 L 5.707031 -14.011719 C 5.707031 -17.671875 8.003906 -19.332031 11.199219 -19.332031 C 14.308594 -19.332031 16.691406 -17.628906 16.691406 -14.011719 Z M 16.691406 -14.011719 "/></g></g></g><g fill="#ffcf00" fill-opacity="1"><g transform="translate(74.706302, 53.04157)"><g><path d="M 6.300781 -7.238281 L 6.300781 -18.695312 L 11.839844 -18.695312 C 12.136719 -18.695312 12.308594 -18.863281 12.308594 -19.207031 L 12.308594 -21.335938 C 12.308594 -21.632812 12.136719 -21.804688 11.839844 -21.804688 L 6.300781 -21.804688 L 6.003906 -26.957031 C 5.960938 -27.253906 5.792969 -27.425781 5.535156 -27.425781 L 3.320312 -27.425781 C 2.980469 -27.425781 2.808594 -27.253906 2.808594 -26.914062 L 2.808594 -7.070312 C 2.808594 -1.832031 5.960938 0.46875 10.21875 0.46875 C 10.773438 0.46875 11.753906 0.425781 12.519531 0.382812 C 12.816406 0.339844 12.945312 0.128906 12.945312 -0.128906 L 12.945312 -2.382812 C 12.945312 -2.683594 12.773438 -2.851562 12.433594 -2.851562 C 11.667969 -2.808594 10.859375 -2.769531 10.390625 -2.769531 C 7.75 -2.769531 6.300781 -4.429688 6.300781 -7.238281 Z M 6.300781 -7.238281 "/></g></g></g><g fill="#ffcf00" fill-opacity="1"><g transform="translate(90.505221, 53.04157)"><g><path d="M 20.867188 -7.878906 L 20.867188 -14.011719 C 20.867188 -18.992188 17.289062 -22.484375 11.496094 -22.484375 C 5.75 -22.484375 2.128906 -18.992188 2.128906 -14.011719 L 2.128906 -7.878906 C 2.128906 -2.894531 5.75 0.46875 11.496094 0.46875 C 17.289062 0.46875 20.867188 -2.894531 20.867188 -7.878906 Z M 5.664062 -7.878906 L 5.664062 -14.011719 C 5.664062 -17.246094 7.707031 -19.332031 11.496094 -19.332031 C 15.332031 -19.332031 17.375 -17.246094 17.375 -14.011719 L 17.375 -7.878906 C 17.375 -4.683594 15.332031 -2.640625 11.496094 -2.640625 C 7.707031 -2.640625 5.664062 -4.683594 5.664062 -7.878906 Z M 5.664062 -7.878906 "/></g></g></g><g fill="#ffcf00" fill-opacity="1"><g transform="translate(115.629873, 53.04157)"><g><path d="M 16.734375 -29.980469 L 16.734375 -21.164062 C 15.246094 -21.929688 13.371094 -22.484375 11.371094 -22.484375 C 5.960938 -22.484375 2.128906 -19.164062 2.128906 -13.457031 L 2.128906 -8.730469 C 2.128906 -2.300781 6.089844 0.46875 11.625 0.46875 C 14.351562 0.46875 17.417969 -0.0859375 19.84375 -1.023438 C 20.140625 -1.148438 20.226562 -1.320312 20.226562 -1.574219 L 20.226562 -29.980469 C 20.226562 -30.277344 20.058594 -30.449219 19.757812 -30.449219 L 17.246094 -30.449219 C 16.90625 -30.449219 16.734375 -30.277344 16.734375 -29.980469 Z M 5.664062 -8.730469 L 5.664062 -13.457031 C 5.664062 -17.542969 7.835938 -19.375 11.667969 -19.375 C 13.625 -19.375 15.371094 -18.78125 16.734375 -17.84375 L 16.734375 -3.40625 C 15.414062 -2.894531 13.542969 -2.597656 11.710938 -2.597656 C 7.921875 -2.597656 5.664062 -4.257812 5.664062 -8.730469 Z M 5.664062 -8.730469 "/></g></g></g><g fill="#ffcf00" fill-opacity="1"><g transform="translate(140.88228, 53.04157)"><g><path d="M 20.867188 -7.878906 L 20.867188 -14.011719 C 20.867188 -18.992188 17.289062 -22.484375 11.496094 -22.484375 C 5.75 -22.484375 2.128906 -18.992188 2.128906 -14.011719 L 2.128906 -7.878906 C 2.128906 -2.894531 5.75 0.46875 11.496094 0.46875 C 17.289062 0.46875 20.867188 -2.894531 20.867188 -7.878906 Z M 5.664062 -7.878906 L 5.664062 -14.011719 C 5.664062 -17.246094 7.707031 -19.332031 11.496094 -19.332031 C 15.332031 -19.332031 17.375 -17.246094 17.375 -14.011719 L 17.375 -7.878906 C 17.375 -4.683594 15.332031 -2.640625 11.496094 -2.640625 C 7.707031 -2.640625 5.664062 -4.683594 5.664062 -7.878906 Z M 5.664062 -7.878906 "/></g></g></g><g fill="#ffcf00" fill-opacity="1"><g transform="translate(166.006932, 53.04157)"><g><path d="M 11.625 0.339844 C 11.882812 0.296875 12.050781 0.0859375 12.050781 -0.214844 L 12.050781 -2.382812 C 12.050781 -2.683594 11.882812 -2.851562 11.539062 -2.851562 C 10.859375 -2.769531 10.136719 -2.726562 9.625 -2.726562 C 7.453125 -2.726562 6.300781 -4.003906 6.300781 -7.324219 L 6.300781 -29.980469 C 6.300781 -30.277344 6.132812 -30.449219 5.835938 -30.449219 L 3.320312 -30.449219 C 2.980469 -30.449219 2.808594 -30.277344 2.808594 -29.980469 L 2.808594 -7.367188 C 2.808594 -2.257812 5.152344 0.46875 9.242188 0.46875 C 10.007812 0.46875 10.902344 0.425781 11.625 0.339844 Z M 11.625 0.339844 "/></g></g></g><g fill="#ffcf00" fill-opacity="1"><g transform="translate(180.485771, 53.04157)"><g><path d="M 20.867188 -7.878906 L 20.867188 -14.011719 C 20.867188 -18.992188 17.289062 -22.484375 11.496094 -22.484375 C 5.75 -22.484375 2.128906 -18.992188 2.128906 -14.011719 L 2.128906 -7.878906 C 2.128906 -2.894531 5.75 0.46875 11.496094 0.46875 C 17.289062 0.46875 20.867188 -2.894531 20.867188 -7.878906 Z M 5.664062 -7.878906 L 5.664062 -14.011719 C 5.664062 -17.246094 7.707031 -19.332031 11.496094 -19.332031 C 15.332031 -19.332031 17.375 -17.246094 17.375 -14.011719 L 17.375 -7.878906 C 17.375 -4.683594 15.332031 -2.640625 11.496094 -2.640625 C 7.707031 -2.640625 5.664062 -4.683594 5.664062 -7.878906 Z M 5.664062 -7.878906 "/></g></g></g><g fill="#ffcf00" fill-opacity="1"><g transform="translate(205.610432, 53.04157)"><g><path d="M 20.226562 -0.597656 L 20.226562 -20.269531 C 20.226562 -20.566406 20.097656 -20.738281 19.84375 -20.824219 C 17.628906 -21.804688 14.648438 -22.484375 11.667969 -22.484375 C 6.34375 -22.484375 2.128906 -20.058594 2.128906 -13.625 L 2.128906 -9.367188 C 2.128906 -3.449219 6.175781 -0.679688 11.285156 -0.679688 C 13.074219 -0.679688 15.160156 -1.148438 16.734375 -1.917969 L 16.734375 -0.894531 C 16.863281 3.449219 15.074219 5.367188 11.242188 5.367188 C 8.6875 5.367188 6.644531 4.386719 4.898438 2.980469 C 4.640625 2.769531 4.386719 2.808594 4.214844 3.066406 L 2.980469 4.898438 C 2.808594 5.195312 2.808594 5.40625 3.023438 5.578125 C 5.28125 7.453125 7.835938 8.515625 11.242188 8.515625 C 17.585938 8.515625 20.226562 4.980469 20.226562 -0.597656 Z M 5.664062 -9.367188 L 5.664062 -13.625 C 5.664062 -17.84375 8.046875 -19.332031 11.710938 -19.332031 C 13.285156 -19.332031 15.5 -19.035156 16.734375 -18.609375 L 16.734375 -5.109375 C 15.542969 -4.300781 13.457031 -3.832031 11.539062 -3.832031 C 8.175781 -3.832031 5.664062 -5.28125 5.664062 -9.367188 Z M 5.664062 -9.367188 "/></g></g></g><g fill="#ffcf00" fill-opacity="1"><g transform="translate(230.862847, 53.04157)"><g><path d="M 6.8125 -28.191406 C 6.8125 -29.425781 5.917969 -30.277344 4.726562 -30.277344 C 3.535156 -30.277344 2.597656 -29.425781 2.597656 -28.191406 C 2.597656 -27 3.535156 -26.105469 4.726562 -26.105469 C 5.917969 -26.105469 6.8125 -27 6.8125 -28.191406 Z M 3.449219 0 L 5.960938 0 C 6.261719 0 6.429688 -0.171875 6.429688 -0.46875 L 6.429688 -21.503906 C 6.429688 -21.804688 6.261719 -22.015625 5.960938 -22.015625 L 3.449219 -22.015625 C 3.109375 -22.015625 2.9375 -21.804688 2.9375 -21.503906 L 2.9375 -0.46875 C 2.9375 -0.171875 3.109375 0 3.449219 0 Z M 3.449219 0 "/></g></g></g><g fill="#ffcf00" fill-opacity="1"><g transform="translate(242.360868, 53.04157)"><g><path d="M 2.597656 -20.269531 C 2.425781 -20.097656 2.46875 -19.929688 2.597656 -19.671875 L 3.832031 -17.886719 C 4.003906 -17.628906 4.214844 -17.585938 4.472656 -17.757812 C 5.960938 -18.652344 8.132812 -19.332031 10.519531 -19.332031 C 14.222656 -19.332031 15.628906 -17.585938 15.628906 -14.136719 L 15.628906 -12.773438 C 14.179688 -13.03125 12.265625 -13.285156 10.519531 -13.285156 C 5.066406 -13.285156 1.363281 -11.027344 1.363281 -6.515625 C 1.363281 -1.449219 5.75 0.46875 10.519531 0.46875 C 13.710938 0.46875 16.734375 -0.171875 18.738281 -0.894531 C 18.992188 -0.980469 19.121094 -1.191406 19.121094 -1.449219 L 19.121094 -14.222656 C 19.121094 -19.714844 15.882812 -22.484375 10.644531 -22.484375 C 7.367188 -22.484375 4.597656 -21.632812 2.597656 -20.269531 Z M 4.855469 -6.515625 C 4.855469 -8.859375 6.644531 -10.304688 10.519531 -10.304688 C 12.265625 -10.304688 14.265625 -10.050781 15.628906 -9.792969 L 15.628906 -3.40625 C 14.351562 -3.023438 12.433594 -2.640625 10.519531 -2.640625 C 7.238281 -2.640625 4.855469 -3.960938 4.855469 -6.515625 Z M 4.855469 -6.515625 "/></g></g></g><g fill="#ffcf00" fill-opacity="1"><g transform="translate(266.250593, 53.04157)"><g/></g></g><g fill="#ffcf00" fill-opacity="1"><g transform="translate(277.96152, 53.04157)"><g><path d="M 0.765625 0 L 3.621094 0 C 3.917969 0 4.089844 -0.128906 4.171875 -0.382812 L 6.8125 -7.964844 L 19.589844 -7.964844 L 22.1875 -0.382812 C 22.269531 -0.128906 22.484375 0 22.738281 0 L 25.59375 0 C 25.933594 0 26.105469 -0.214844 25.976562 -0.554688 L 15.414062 -30.0625 C 15.332031 -30.320312 15.117188 -30.449219 14.863281 -30.449219 L 11.496094 -30.449219 C 11.242188 -30.449219 11.070312 -30.320312 10.988281 -30.0625 L 0.382812 -0.554688 C 0.296875 -0.214844 0.425781 0 0.765625 0 Z M 7.921875 -11.328125 L 13.117188 -26.402344 L 13.285156 -26.402344 L 18.480469 -11.328125 Z M 7.921875 -11.328125 "/></g></g></g><g fill="#ffcf00" fill-opacity="1"><g transform="translate(306.45026, 53.04157)"><g><path d="M 7.152344 -28.191406 C 7.152344 -29.425781 6.261719 -30.277344 5.066406 -30.277344 C 3.875 -30.277344 2.9375 -29.425781 2.9375 -28.191406 C 2.9375 -27 3.875 -26.105469 5.066406 -26.105469 C 6.261719 -26.105469 7.152344 -27 7.152344 -28.191406 Z M 6.769531 0.722656 L 6.769531 -21.503906 C 6.769531 -21.804688 6.601562 -22.015625 6.300781 -22.015625 L 3.789062 -22.015625 C 3.449219 -22.015625 3.277344 -21.804688 3.277344 -21.503906 L 3.277344 0.722656 C 3.277344 4.128906 2.171875 5.367188 0 5.367188 C -0.46875 5.367188 -1.066406 5.324219 -1.660156 5.238281 C -2 5.238281 -2.171875 5.40625 -2.171875 5.75 L -2.171875 7.878906 C -2.171875 8.175781 -2.042969 8.390625 -1.703125 8.429688 C -1.066406 8.515625 -0.339844 8.558594 0.382812 8.558594 C 4.472656 8.558594 6.769531 5.835938 6.769531 0.722656 Z M 6.769531 0.722656 "/></g></g></g><g fill="#ffcf00" fill-opacity="1"><g transform="translate(318.288941, 53.04157)"><g><path d="M 2.597656 -20.269531 C 2.425781 -20.097656 2.46875 -19.929688 2.597656 -19.671875 L 3.832031 -17.886719 C 4.003906 -17.628906 4.214844 -17.585938 4.472656 -17.757812 C 5.960938 -18.652344 8.132812 -19.332031 10.519531 -19.332031 C 14.222656 -19.332031 15.628906 -17.585938 15.628906 -14.136719 L 15.628906 -12.773438 C 14.179688 -13.03125 12.265625 -13.285156 10.519531 -13.285156 C 5.066406 -13.285156 1.363281 -11.027344 1.363281 -6.515625 C 1.363281 -1.449219 5.75 0.46875 10.519531 0.46875 C 13.710938 0.46875 16.734375 -0.171875 18.738281 -0.894531 C 18.992188 -0.980469 19.121094 -1.191406 19.121094 -1.449219 L 19.121094 -14.222656 C 19.121094 -19.714844 15.882812 -22.484375 10.644531 -22.484375 C 7.367188 -22.484375 4.597656 -21.632812 2.597656 -20.269531 Z M 4.855469 -6.515625 C 4.855469 -8.859375 6.644531 -10.304688 10.519531 -10.304688 C 12.265625 -10.304688 14.265625 -10.050781 15.628906 -9.792969 L 15.628906 -3.40625 C 14.351562 -3.023438 12.433594 -2.640625 10.519531 -2.640625 C 7.238281 -2.640625 4.855469 -3.960938 4.855469 -6.515625 Z M 4.855469 -6.515625 "/></g></g></g><g fill="#ffcf00" fill-opacity="1"><g transform="translate(342.178683, 53.04157)"><g><path d="M 19.929688 -0.597656 L 12.519531 -11.113281 L 19.503906 -21.417969 C 19.714844 -21.71875 19.546875 -22.015625 19.164062 -22.015625 L 16.183594 -22.015625 C 15.96875 -22.015625 15.757812 -21.84375 15.628906 -21.675781 L 10.390625 -13.585938 L 5.152344 -21.675781 C 5.023438 -21.84375 4.8125 -22.015625 4.554688 -22.015625 L 1.574219 -22.015625 C 1.191406 -22.015625 1.066406 -21.71875 1.277344 -21.417969 L 8.21875 -11.113281 L 0.808594 -0.597656 C 0.597656 -0.253906 0.722656 0 1.105469 0 L 4.257812 0 C 4.515625 0 4.726562 -0.0859375 4.855469 -0.296875 L 10.390625 -8.6875 L 15.925781 -0.296875 C 16.054688 -0.0859375 16.265625 0 16.480469 0 L 19.632812 0 C 20.015625 0 20.140625 -0.253906 19.929688 -0.597656 Z M 19.929688 -0.597656 "/></g></g></g><path stroke-linecap="butt" transform="matrix(1.110112, 0, 0, 1.110112, 4.814855, 16.407861)" fill="none" stroke-linejoin="miter" d="M 10.409972 33.00126 L 12.788673 33.00126 C 13.049063 33.00126 13.207408 32.849952 13.207408 32.579006 L 13.207408 20.995156 C 13.207408 17.771946 13.08777 13.859054 13.010356 10.597138 L 13.08777 10.56195 C 14.090624 12.630997 15.279974 14.897097 16.578407 17.314504 L 21.374515 26.21 C 21.44841 26.396495 21.645462 26.519653 21.870664 26.519653 L 23.904523 26.519653 C 24.136763 26.519653 24.333816 26.396495 24.446417 26.21 L 29.242525 17.314504 C 30.505769 14.897097 31.69512 12.630997 32.736681 10.56195 L 32.810575 10.597138 C 32.687418 13.859054 32.574817 17.771946 32.574817 20.995156 L 32.574817 32.579006 C 32.574817 32.849952 32.736681 33.00126 32.997071 33.00126 L 35.414478 33.00126 C 35.685425 33.00126 35.836733 32.849952 35.836733 32.579006 L 35.836733 5.991045 C 35.836733 5.727136 35.685425 5.56879 35.414478 5.56879 L 32.500922 5.56879 C 32.265163 5.56879 32.078668 5.653241 32.004773 5.878444 L 26.019315 16.733904 C 25.055167 18.465148 23.640614 21.301291 22.947413 22.75455 L 22.834812 22.75455 C 22.141611 21.301291 20.730577 18.465148 19.76291 16.695197 L 13.816159 5.878444 C 13.703557 5.653241 13.510024 5.56879 13.32001 5.56879 L 10.409972 5.56879 C 10.100319 5.56879 9.949011 5.727136 9.949011 5.991045 L 9.949011 32.579006 C 9.949011 32.849952 10.100319 33.00126 10.409972 33.00126 Z M 59.27186 24.140952 L 59.27186 20.375849 C 59.27186 15.122299 55.443419 12.743599 51.256061 12.743599 C 47.040553 12.743599 43.127661 15.122299 43.127661 20.375849 L 43.127661 26.21 C 43.127661 31.041295 47.07926 33.419996 51.220873 33.419996 C 54.440564 33.419996 56.893159 32.269352 58.814418 30.657747 C 59.050176 30.471252 59.085364 30.2742 58.888312 30.048997 L 57.783413 28.5887 C 57.625067 28.35646 57.399865 28.317754 57.167625 28.476099 C 55.742516 29.580998 53.944415 30.62256 51.294768 30.62256 C 48.455106 30.62256 46.312164 29.084849 46.312164 26.21 L 46.312164 24.598395 L 58.853124 24.598395 C 59.124071 24.598395 59.27186 24.450606 59.27186 24.140952 Z M 56.210515 20.375849 L 56.210515 21.987454 L 46.312164 21.987454 L 46.312164 20.375849 C 46.312164 17.078745 48.381212 15.579742 51.256061 15.579742 C 54.057016 15.579742 56.210515 17.117452 56.210515 20.375849 Z M 68.635354 26.480946 L 68.635354 16.160342 L 73.624996 16.160342 C 73.888905 16.160342 74.04725 16.001996 74.04725 15.702899 L 74.04725 13.781641 C 74.04725 13.510694 73.888905 13.359386 73.624996 13.359386 L 68.635354 13.359386 L 68.371445 8.714587 C 68.325701 8.454196 68.174393 8.295851 67.942153 8.295851 L 65.947 8.295851 C 65.647904 8.295851 65.486039 8.454196 65.486039 8.753293 L 65.486039 26.632254 C 65.486039 31.350949 68.325701 33.419996 72.164699 33.419996 C 72.660848 33.419996 73.540545 33.384808 74.233746 33.346101 C 74.504692 33.307395 74.617294 33.113861 74.617294 32.888659 L 74.617294 30.8548 C 74.617294 30.583853 74.469505 30.432545 74.159851 30.432545 C 73.46665 30.471252 72.734742 30.509958 72.316006 30.509958 C 69.937306 30.509958 68.635354 29.010955 68.635354 26.480946 Z M 95.986892 25.900346 L 95.986892 20.375849 C 95.986892 15.889395 92.763683 12.743599 87.548839 12.743599 C 82.369183 12.743599 79.110786 15.889395 79.110786 20.375849 L 79.110786 25.900346 C 79.110786 30.386801 82.369183 33.419996 87.548839 33.419996 C 92.763683 33.419996 95.986892 30.386801 95.986892 25.900346 Z M 82.295289 25.900346 L 82.295289 20.375849 C 82.295289 17.462293 84.132096 15.579742 87.548839 15.579742 C 91.004289 15.579742 92.841096 17.462293 92.841096 20.375849 L 92.841096 25.900346 C 92.841096 28.775196 91.004289 30.62256 87.548839 30.62256 C 84.132096 30.62256 82.295289 28.775196 82.295289 25.900346 Z M 114.900377 5.991045 L 114.900377 13.932949 C 113.552681 13.250304 111.867182 12.743599 110.069081 12.743599 C 105.188522 12.743599 101.743629 15.741606 101.743629 20.882555 L 101.743629 25.133251 C 101.743629 30.928694 105.31168 33.419996 110.294284 33.419996 C 112.746879 33.419996 115.509127 32.923847 117.701332 32.082857 C 117.965241 31.959699 118.049692 31.81191 118.049692 31.576151 L 118.049692 5.991045 C 118.049692 5.727136 117.887828 5.56879 117.627437 5.56879 L 115.361338 5.56879 C 115.051685 5.56879 114.900377 5.727136 114.900377 5.991045 Z M 104.928132 25.133251 L 104.928132 20.882555 C 104.928132 17.191346 106.884578 15.544554 110.329471 15.544554 C 112.099422 15.544554 113.675839 16.086447 114.900377 16.930956 L 114.900377 29.929358 C 113.711027 30.386801 112.025527 30.657747 110.368178 30.657747 C 106.958473 30.657747 104.928132 29.158744 104.928132 25.133251 Z M 141.36518 25.900346 L 141.36518 20.375849 C 141.36518 15.889395 138.145489 12.743599 132.927127 12.743599 C 127.75099 12.743599 124.489074 15.889395 124.489074 20.375849 L 124.489074 25.900346 C 124.489074 30.386801 127.75099 33.419996 132.927127 33.419996 C 138.145489 33.419996 141.36518 30.386801 141.36518 25.900346 Z M 127.673577 25.900346 L 127.673577 20.375849 C 127.673577 17.462293 129.510384 15.579742 132.927127 15.579742 C 136.386095 15.579742 138.219384 17.462293 138.219384 20.375849 L 138.219384 25.900346 C 138.219384 28.775196 136.386095 30.62256 132.927127 30.62256 C 129.510384 30.62256 127.673577 28.775196 127.673577 25.900346 Z M 155.672571 33.307395 C 155.90833 33.272207 156.056119 33.075155 156.056119 32.811246 L 156.056119 30.8548 C 156.056119 30.583853 155.90833 30.432545 155.598677 30.432545 C 154.97937 30.509958 154.335432 30.545146 153.874471 30.545146 C 151.918025 30.545146 150.879982 29.394503 150.879982 26.396495 L 150.879982 5.991045 C 150.879982 5.727136 150.728675 5.56879 150.457728 5.56879 L 148.191629 5.56879 C 147.892532 5.56879 147.730667 5.727136 147.730667 5.991045 L 147.730667 26.361308 C 147.730667 30.967401 149.848978 33.419996 153.52963 33.419996 C 154.222831 33.419996 155.028633 33.384808 155.672571 33.307395 Z M 177.04217 25.900346 L 177.04217 20.375849 C 177.04217 15.889395 173.81896 12.743599 168.604117 12.743599 C 163.424461 12.743599 160.166064 15.889395 160.166064 20.375849 L 160.166064 25.900346 C 160.166064 30.386801 163.424461 33.419996 168.604117 33.419996 C 173.81896 33.419996 177.04217 30.386801 177.04217 25.900346 Z M 163.350567 25.900346 L 163.350567 20.375849 C 163.350567 17.462293 165.187374 15.579742 168.604117 15.579742 C 172.059566 15.579742 173.896374 17.462293 173.896374 20.375849 L 173.896374 25.900346 C 173.896374 28.775196 172.059566 30.62256 168.604117 30.62256 C 165.187374 30.62256 163.350567 28.775196 163.350567 25.900346 Z M 199.10497 32.466404 L 199.10497 14.738751 C 199.10497 14.474842 198.981812 14.316497 198.75661 14.242602 C 196.761457 13.359386 194.073103 12.743599 191.384749 12.743599 C 186.59216 12.743599 182.798907 14.935803 182.798907 20.720691 L 182.798907 24.563207 C 182.798907 29.890652 186.440852 32.381954 191.039908 32.381954 C 192.651513 32.381954 194.534064 31.959699 195.955655 31.277054 L 195.955655 32.195458 C 196.068256 36.10835 194.456651 37.832556 191.001201 37.832556 C 188.706952 37.832556 186.863107 36.952859 185.290209 35.686095 C 185.05445 35.492562 184.829248 35.52775 184.681458 35.763509 L 183.566003 37.410301 C 183.407657 37.681248 183.407657 37.871263 183.604709 38.029608 C 185.63505 39.715107 187.939856 40.668699 191.001201 40.668699 C 196.726269 40.668699 199.10497 37.484196 199.10497 32.466404 Z M 185.98341 24.563207 L 185.98341 20.720691 C 185.98341 16.930956 188.126352 15.579742 191.423456 15.579742 C 192.848565 15.579742 194.843718 15.850688 195.955655 16.237755 L 195.955655 28.391648 C 194.878906 29.123556 192.996354 29.545811 191.275667 29.545811 C 188.238953 29.545811 185.98341 28.243859 185.98341 24.563207 Z M 209.759859 7.60265 C 209.759859 6.49775 208.954057 5.727136 207.887864 5.727136 C 206.811115 5.727136 205.966606 6.49775 205.966606 7.60265 C 205.966606 8.679399 206.811115 9.485201 207.887864 9.485201 C 208.954057 9.485201 209.759859 8.679399 209.759859 7.60265 Z M 206.737221 33.00126 L 208.992764 33.00126 C 209.26371 33.00126 209.415018 32.849952 209.415018 32.579006 L 209.415018 13.633852 C 209.415018 13.359386 209.26371 13.165853 208.992764 13.165853 L 206.737221 13.165853 C 206.427567 13.165853 206.276259 13.359386 206.276259 13.633852 L 206.276259 32.579006 C 206.276259 32.849952 206.427567 33.00126 206.737221 33.00126 Z M 216.325917 14.738751 C 216.167572 14.897097 216.213316 15.048405 216.325917 15.280645 L 217.437854 16.892249 C 217.589162 17.117452 217.786214 17.15264 218.011417 17.004851 C 219.348556 16.199048 221.308521 15.579742 223.462019 15.579742 C 226.794311 15.579742 228.061075 17.15264 228.061075 20.263248 L 228.061075 21.491305 C 226.759123 21.266103 225.034917 21.030344 223.462019 21.030344 C 218.546273 21.030344 215.210462 23.064203 215.210462 27.128403 C 215.210462 31.699309 219.16206 33.419996 223.462019 33.419996 C 226.336869 33.419996 229.060411 32.849952 230.858511 32.195458 C 231.09427 32.118044 231.206871 31.924511 231.206871 31.699309 L 231.206871 20.189354 C 231.206871 15.241938 228.293315 12.743599 223.57462 12.743599 C 220.622357 12.743599 218.124018 13.510694 216.325917 14.738751 Z M 218.356258 27.128403 C 218.356258 25.020649 219.967863 23.718698 223.462019 23.718698 C 225.034917 23.718698 226.833018 23.9439 228.061075 24.179659 L 228.061075 29.929358 C 226.906912 30.2742 225.186225 30.62256 223.462019 30.62256 C 220.502719 30.62256 218.356258 29.433209 218.356258 27.128403 Z M 246.745838 33.00126 L 249.311035 33.00126 C 249.5855 33.00126 249.733289 32.888659 249.807184 32.6529 L 252.185884 25.826452 L 263.695839 25.826452 L 266.039352 32.6529 C 266.113247 32.888659 266.310299 33.00126 266.535501 33.00126 L 269.111254 33.00126 C 269.410351 33.00126 269.568696 32.811246 269.456095 32.505111 L 259.941293 5.91715 C 259.867398 5.691948 259.670346 5.56879 259.445144 5.56879 L 256.411948 5.56879 C 256.17619 5.56879 256.028401 5.691948 255.950987 5.91715 L 246.400997 32.505111 C 246.323584 32.811246 246.436185 33.00126 246.745838 33.00126 Z M 253.188739 22.793257 L 257.872245 9.210736 L 258.023553 9.210736 L 262.703541 22.793257 Z M 278.158057 7.60265 C 278.158057 6.49775 277.352255 5.727136 276.275506 5.727136 C 275.209313 5.727136 274.364804 6.49775 274.364804 7.60265 C 274.364804 8.679399 275.209313 9.485201 276.275506 9.485201 C 277.352255 9.485201 278.158057 8.679399 278.158057 7.60265 Z M 277.813216 33.655755 L 277.813216 13.633852 C 277.813216 13.359386 277.661908 13.165853 277.390962 13.165853 L 275.135419 13.165853 C 274.825765 13.165853 274.66742 13.359386 274.66742 13.633852 L 274.66742 33.655755 C 274.66742 36.7171 273.675122 37.832556 271.715157 37.832556 C 271.292902 37.832556 270.761565 37.793849 270.216153 37.719955 C 269.910019 37.719955 269.758711 37.871263 269.758711 38.177397 L 269.758711 40.098655 C 269.758711 40.362564 269.871312 40.556098 270.180965 40.594804 C 270.761565 40.668699 271.405503 40.707406 272.063517 40.707406 C 275.744169 40.707406 277.813216 38.25481 277.813216 33.655755 Z M 284.720597 14.738751 C 284.562251 14.897097 284.607995 15.048405 284.720597 15.280645 L 285.836052 16.892249 C 285.98736 17.117452 286.184412 17.15264 286.406096 17.004851 C 287.746754 16.199048 289.7032 15.579742 291.856698 15.579742 C 295.192509 15.579742 296.455754 17.15264 296.455754 20.263248 L 296.455754 21.491305 C 295.153803 21.266103 293.433115 21.030344 291.856698 21.030344 C 286.940952 21.030344 283.60866 23.064203 283.60866 27.128403 C 283.60866 31.699309 287.560258 33.419996 291.856698 33.419996 C 294.731548 33.419996 297.458609 32.849952 299.256709 32.195458 C 299.492468 32.118044 299.60155 31.924511 299.60155 31.699309 L 299.60155 20.189354 C 299.60155 15.241938 296.691513 12.743599 291.9693 12.743599 C 289.020555 12.743599 286.518697 13.510694 284.720597 14.738751 Z M 286.754456 27.128403 C 286.754456 25.020649 288.366061 23.718698 291.856698 23.718698 C 293.433115 23.718698 295.231216 23.9439 296.455754 24.179659 L 296.455754 29.929358 C 295.30511 30.2742 293.580904 30.62256 291.856698 30.62256 C 288.897398 30.62256 286.754456 29.433209 286.754456 27.128403 Z M 321.854365 32.466404 L 315.175705 22.990309 L 321.470817 13.707746 C 321.657312 13.4368 321.506005 13.165853 321.161163 13.165853 L 318.47281 13.165853 C 318.286314 13.165853 318.099818 13.324199 317.97666 13.471988 L 313.257966 20.759397 L 308.546309 13.471988 C 308.423151 13.324199 308.236656 13.165853 308.000897 13.165853 L 305.323099 13.165853 C 304.978258 13.165853 304.855101 13.4368 305.052153 13.707746 L 311.308557 22.990309 L 304.629898 32.466404 C 304.432846 32.765501 304.556004 33.00126 304.893807 33.00126 L 307.740507 33.00126 C 307.965709 33.00126 308.162761 32.923847 308.275362 32.726795 L 313.257966 25.171957 L 318.247607 32.726795 C 318.360208 32.923847 318.55726 33.00126 318.743756 33.00126 L 321.583418 33.00126 C 321.928259 33.00126 322.04086 32.765501 321.854365 32.466404 Z M 321.854365 32.466404 " stroke="#175c69" stroke-width="0.959225" stroke-opacity="1" stroke-miterlimit="4"/></svg>