<svg xmlns="http://www.w3.org/2000/svg" xmlns:xlink="http://www.w3.org/1999/xlink" width="500" zoomAndPan="magnify" viewBox="0 0 375 374.999991" height="500" preserveAspectRatio="xMidYMid meet" version="1.0"><defs><clipPath id="e8ec9164c9"><path d="M 149.421875 347.457031 L 212 347.457031 L 212 365.578125 L 149.421875 365.578125 Z M 149.421875 347.457031 " clip-rule="nonzero"/></clipPath><clipPath id="ae9e16ea1c"><path d="M 329 140 L 361.5 140 L 361.5 148 L 329 148 Z M 329 140 " clip-rule="nonzero"/></clipPath></defs><path fill="#737373" d="M 150.433594 229.589844 C 150.089844 229.589844 149.75 229.578125 149.410156 229.5625 C 149.171875 229.550781 148.933594 229.53125 148.699219 229.507812 C 148.605469 229.503906 148.515625 229.496094 148.425781 229.492188 C 138.589844 228.523438 130.542969 220.550781 129.699219 210.546875 C 129.695312 210.542969 129.695312 210.535156 129.695312 210.527344 C 129.644531 209.945312 129.613281 209.363281 129.613281 208.769531 C 129.613281 197.292969 138.953125 187.949219 150.433594 187.949219 C 152.484375 187.949219 154.148438 186.289062 154.148438 184.238281 C 154.148438 182.1875 152.484375 180.527344 150.433594 180.527344 C 135.316406 180.527344 122.9375 192.460938 122.222656 207.402344 C 110.855469 207.269531 101.644531 197.988281 101.644531 186.589844 C 101.644531 182.316406 102.929688 178.214844 105.367188 174.714844 C 105.972656 173.84375 106.179688 172.75 105.925781 171.71875 C 105.675781 170.6875 104.996094 169.808594 104.058594 169.3125 C 97.210938 165.6875 92.964844 158.632812 92.964844 150.90625 C 92.964844 146.160156 94.550781 141.648438 97.464844 137.980469 C 97.527344 137.898438 97.585938 137.820312 97.648438 137.742188 C 97.6875 137.695312 97.730469 137.652344 97.769531 137.609375 C 98.167969 137.125 98.589844 136.652344 99.039062 136.207031 C 99.046875 136.203125 99.050781 136.191406 99.054688 136.191406 C 102.988281 132.253906 108.21875 130.085938 113.789062 130.085938 C 117.777344 130.085938 121.660156 131.222656 125.015625 133.375 C 131.019531 137.222656 134.601562 143.777344 134.601562 150.90625 C 134.601562 152.957031 136.261719 154.621094 138.316406 154.621094 C 140.363281 154.621094 142.027344 152.957031 142.027344 150.90625 C 142.027344 141.234375 137.167969 132.34375 129.023438 127.125 C 124.46875 124.203125 119.199219 122.660156 113.789062 122.660156 C 107.664062 122.660156 101.84375 124.59375 97.019531 128.167969 C 95.710938 125.867188 95.011719 123.265625 95.011719 120.585938 C 95.011719 113.375 100.125 107.03125 107.164062 105.496094 C 108.144531 105.28125 108.996094 104.679688 109.527344 103.832031 C 110.058594 102.976562 110.21875 101.945312 109.976562 100.972656 C 109.566406 99.324219 109.359375 97.628906 109.359375 95.933594 C 109.359375 84.453125 118.699219 75.113281 130.179688 75.113281 C 131.125 75.113281 132.074219 75.179688 133.007812 75.308594 C 134.019531 87.003906 143.851562 96.207031 155.800781 96.207031 C 157.851562 96.207031 159.515625 94.550781 159.515625 92.496094 C 159.515625 90.445312 157.851562 88.785156 155.800781 88.785156 C 147.28125 88.785156 140.34375 81.851562 140.34375 73.328125 C 140.34375 73.210938 140.339844 73.09375 140.328125 72.980469 C 140.359375 72.8125 140.382812 72.652344 140.390625 72.480469 C 140.835938 64.292969 147.605469 57.875 155.800781 57.875 C 164.324219 57.875 171.257812 64.808594 171.257812 73.328125 L 171.257812 208.769531 C 171.257812 220.25 161.914062 229.589844 150.433594 229.589844 Z M 251.972656 103.832031 C 252.5 104.679688 253.355469 105.28125 254.335938 105.496094 C 261.375 107.03125 266.488281 113.375 266.488281 120.585938 C 266.488281 124.46875 265.023438 128.1875 262.363281 131.0625 C 261.011719 132.523438 261.050781 134.796875 262.460938 136.207031 C 266.378906 140.132812 268.535156 145.355469 268.535156 150.90625 C 268.535156 158.632812 264.289062 165.6875 257.441406 169.3125 C 256.503906 169.8125 255.824219 170.6875 255.574219 171.71875 C 255.320312 172.75 255.527344 173.84375 256.132812 174.714844 C 258.570312 178.214844 259.855469 182.316406 259.855469 186.589844 C 259.855469 198.066406 250.519531 207.40625 239.035156 207.40625 C 238.046875 207.40625 237.039062 207.332031 236.035156 207.1875 C 235.023438 207.042969 233.992188 207.320312 233.191406 207.957031 C 232.390625 208.589844 231.890625 209.53125 231.800781 210.546875 C 230.898438 221.226562 221.789062 229.589844 211.066406 229.589844 C 199.585938 229.589844 190.242188 220.25 190.242188 208.769531 L 190.242188 73.328125 C 190.242188 64.808594 197.175781 57.875 205.699219 57.875 C 213.894531 57.875 220.664062 64.292969 221.109375 72.480469 C 221.167969 73.601562 221.734375 74.632812 222.644531 75.292969 C 223.554688 75.949219 224.71875 76.15625 225.796875 75.859375 C 227.601562 75.363281 229.457031 75.113281 231.320312 75.113281 C 242.800781 75.113281 252.140625 84.453125 252.140625 95.933594 C 252.140625 97.628906 251.933594 99.324219 251.523438 100.972656 C 251.28125 101.945312 251.441406 102.976562 251.972656 103.832031 Z M 238.527344 248.78125 C 238.292969 248.917969 238.078125 249.070312 237.882812 249.242188 C 222.671875 258.964844 219.191406 273.5625 216.113281 286.460938 C 213.980469 295.402344 211.957031 303.875 206.527344 310.691406 L 195.144531 310.691406 L 195.144531 294.773438 C 195.144531 290.472656 193.246094 286.609375 190.242188 283.972656 L 190.242188 227.832031 C 195.410156 233.472656 202.832031 237.015625 211.066406 237.015625 C 224.367188 237.015625 235.839844 227.53125 238.648438 214.828125 C 238.777344 214.832031 238.90625 214.832031 239.035156 214.832031 C 254.613281 214.832031 267.285156 202.160156 267.285156 186.589844 C 267.285156 182.109375 266.234375 177.753906 264.234375 173.816406 C 271.550781 168.550781 275.964844 160.078125 275.964844 150.90625 C 275.964844 144.496094 273.84375 138.410156 269.933594 133.453125 C 272.515625 129.675781 273.914062 125.207031 273.914062 120.585938 C 273.914062 111.128906 267.972656 102.671875 259.367188 99.285156 C 259.5 98.171875 259.566406 97.054688 259.566406 95.933594 C 259.566406 80.355469 246.894531 67.6875 231.320312 67.6875 C 230.179688 67.6875 229.042969 67.757812 227.90625 67.894531 C 225.464844 57.835938 216.402344 50.449219 205.699219 50.449219 C 193.082031 50.449219 182.816406 60.714844 182.816406 73.328125 L 182.816406 280.53125 C 182.144531 280.433594 181.453125 280.382812 180.75 280.382812 C 180.046875 280.382812 179.355469 280.433594 178.683594 280.53125 L 178.683594 73.328125 C 178.683594 60.714844 168.417969 50.449219 155.800781 50.449219 C 145.097656 50.449219 136.035156 57.835938 133.59375 67.894531 C 132.460938 67.757812 131.320312 67.6875 130.179688 67.6875 C 114.605469 67.6875 101.933594 80.355469 101.933594 95.933594 C 101.933594 97.054688 102 98.171875 102.132812 99.285156 C 93.527344 102.671875 87.585938 111.128906 87.585938 120.585938 C 87.585938 125.210938 88.980469 129.675781 91.566406 133.453125 C 91.441406 133.613281 91.324219 133.78125 91.199219 133.941406 C 91.125 134.039062 91.046875 134.140625 90.972656 134.242188 C 90.726562 134.582031 90.484375 134.921875 90.253906 135.269531 C 90.246094 135.277344 90.242188 135.28125 90.238281 135.292969 C 89.742188 136.035156 89.28125 136.804688 88.863281 137.589844 C 88.828125 137.65625 88.792969 137.722656 88.753906 137.792969 C 88.589844 138.109375 88.425781 138.433594 88.273438 138.757812 C 88.230469 138.847656 88.191406 138.933594 88.148438 139.019531 C 88.003906 139.332031 87.863281 139.652344 87.726562 139.972656 C 87.691406 140.0625 87.65625 140.148438 87.621094 140.230469 C 87.480469 140.578125 87.34375 140.929688 87.21875 141.277344 C 87.195312 141.335938 87.175781 141.390625 87.15625 141.449219 C 86.855469 142.285156 86.601562 143.136719 86.382812 144.003906 C 86.371094 144.054688 86.363281 144.109375 86.347656 144.164062 C 86.257812 144.523438 86.175781 144.890625 86.101562 145.257812 C 86.078125 145.375 86.058594 145.492188 86.035156 145.613281 C 85.976562 145.921875 85.925781 146.222656 85.875 146.53125 C 85.851562 146.671875 85.835938 146.8125 85.8125 146.957031 C 85.773438 147.25 85.738281 147.542969 85.707031 147.835938 C 85.691406 147.984375 85.675781 148.128906 85.660156 148.277344 C 85.632812 148.582031 85.613281 148.890625 85.59375 149.203125 C 85.582031 149.332031 85.574219 149.460938 85.566406 149.589844 C 85.546875 150.027344 85.535156 150.464844 85.535156 150.90625 C 85.535156 150.910156 85.535156 150.910156 85.535156 150.914062 C 85.539062 160.082031 89.953125 168.550781 97.265625 173.816406 C 95.265625 177.753906 94.214844 182.109375 94.214844 186.589844 C 94.214844 202.289062 107.160156 215.042969 122.851562 214.828125 C 125.289062 225.933594 134.277344 234.605469 145.542969 236.582031 C 145.898438 236.644531 146.261719 236.699219 146.617188 236.75 C 146.738281 236.765625 146.851562 236.78125 146.96875 236.796875 C 147.25 236.828125 147.535156 236.859375 147.820312 236.890625 C 148.039062 236.910156 148.265625 236.925781 148.488281 236.941406 C 148.691406 236.957031 148.894531 236.972656 149.097656 236.980469 C 149.542969 237.003906 149.988281 237.015625 150.433594 237.015625 C 158.667969 237.015625 166.089844 233.472656 171.257812 227.832031 L 171.257812 283.972656 C 168.253906 286.609375 166.355469 290.472656 166.355469 294.773438 L 166.355469 310.691406 L 155.070312 310.691406 C 149.632812 303.875 147.613281 295.402344 145.480469 286.460938 C 142.367188 273.398438 138.832031 258.585938 123.109375 248.863281 C 123.0625 248.839844 123.019531 248.808594 122.972656 248.78125 C 85.640625 227.847656 62.445312 188.289062 62.445312 145.546875 C 62.445312 80.320312 115.519531 27.253906 180.75 27.253906 C 245.984375 27.253906 299.054688 80.320312 299.054688 145.546875 C 299.054688 188.289062 275.859375 227.847656 238.527344 248.78125 Z M 173.785156 294.773438 C 173.785156 290.933594 176.910156 287.808594 180.75 287.808594 C 184.589844 287.808594 187.714844 290.933594 187.714844 294.773438 L 187.714844 310.691406 L 173.785156 310.691406 Z M 204.480469 322.441406 L 157.019531 322.441406 L 157.019531 318.121094 L 204.480469 318.121094 Z M 180.75 19.828125 C 111.421875 19.828125 55.023438 76.222656 55.023438 145.546875 C 55.023438 190.945312 79.636719 232.960938 119.265625 255.21875 C 132.328125 263.332031 135.207031 275.40625 138.257812 288.1875 C 140.527344 297.703125 142.878906 307.523438 149.59375 315.714844 L 149.59375 323.324219 C 149.59375 326.933594 152.53125 329.871094 156.136719 329.871094 L 205.363281 329.871094 C 208.96875 329.871094 211.90625 326.933594 211.90625 323.324219 L 211.90625 315.824219 C 218.6875 307.609375 221.054688 297.746094 223.335938 288.183594 C 226.390625 275.382812 229.277344 263.289062 242.394531 255.179688 C 242.519531 255.101562 242.636719 255.015625 242.75 254.929688 C 282.078125 232.59375 306.476562 190.746094 306.476562 145.546875 C 306.476562 76.222656 250.078125 19.828125 180.75 19.828125 " fill-opacity="1" fill-rule="nonzero"/><g clip-path="url(#e8ec9164c9)"><path fill="#737373" d="M 191.652344 357.582031 C 191.414062 357.941406 191.015625 358.152344 190.585938 358.152344 L 170.914062 358.152344 C 170.484375 358.152344 170.085938 357.941406 169.847656 357.582031 L 168.101562 354.960938 L 193.398438 354.960938 Z M 208.191406 347.535156 L 153.304688 347.535156 C 151.253906 347.535156 149.59375 349.195312 149.59375 351.246094 C 149.59375 353.296875 151.253906 354.960938 153.304688 354.960938 L 159.175781 354.960938 L 163.667969 361.707031 C 165.289062 364.128906 167.996094 365.578125 170.914062 365.578125 L 190.585938 365.578125 C 193.503906 365.578125 196.210938 364.128906 197.832031 361.703125 L 202.324219 354.960938 L 208.191406 354.960938 C 210.246094 354.960938 211.90625 353.296875 211.90625 351.246094 C 211.90625 349.195312 210.246094 347.535156 208.191406 347.535156 " fill-opacity="1" fill-rule="nonzero"/></g><path fill="#737373" d="M 208.191406 334.988281 L 153.304688 334.988281 C 151.253906 334.988281 149.59375 336.652344 149.59375 338.699219 C 149.59375 340.75 151.253906 342.414062 153.304688 342.414062 L 208.191406 342.414062 C 210.246094 342.414062 211.90625 340.75 211.90625 338.699219 C 211.90625 336.652344 210.246094 334.988281 208.191406 334.988281 " fill-opacity="1" fill-rule="nonzero"/><path fill="#737373" d="M 207.613281 196.824219 C 205.539062 196.824219 203.851562 195.136719 203.851562 193.0625 C 203.851562 190.984375 205.539062 189.296875 207.613281 189.296875 C 209.691406 189.296875 211.378906 190.984375 211.378906 193.0625 C 211.378906 195.136719 209.691406 196.824219 207.613281 196.824219 Z M 211.328125 182.515625 L 211.328125 164.199219 C 211.328125 162.148438 209.667969 160.484375 207.613281 160.484375 C 205.566406 160.484375 203.902344 162.148438 203.902344 164.199219 L 203.902344 182.515625 C 199.554688 184.054688 196.425781 188.191406 196.425781 193.0625 C 196.425781 199.230469 201.445312 204.25 207.613281 204.25 C 213.785156 204.25 218.808594 199.230469 218.808594 193.0625 C 218.808594 188.191406 215.675781 184.054688 211.328125 182.515625 " fill-opacity="1" fill-rule="nonzero"/><path fill="#737373" d="M 237.175781 142.40625 C 235.097656 142.40625 233.410156 140.714844 233.410156 138.640625 C 233.410156 136.5625 235.097656 134.875 237.175781 134.875 C 239.25 134.875 240.9375 136.5625 240.9375 138.640625 C 240.9375 140.714844 239.25 142.40625 237.175781 142.40625 Z M 207.613281 86.625 C 209.691406 86.625 211.378906 88.3125 211.378906 90.390625 C 211.378906 91.164062 211.144531 91.882812 210.742188 92.480469 C 210.722656 92.503906 210.710938 92.527344 210.691406 92.550781 C 210.011719 93.515625 208.886719 94.152344 207.613281 94.152344 C 205.539062 94.152344 203.851562 92.464844 203.851562 90.390625 C 203.851562 88.3125 205.539062 86.625 207.613281 86.625 Z M 237.175781 127.449219 C 236.742188 127.449219 236.316406 127.480469 235.902344 127.527344 L 217.898438 94.800781 C 218.480469 93.445312 218.808594 91.957031 218.808594 90.390625 C 218.808594 84.21875 213.785156 79.199219 207.613281 79.199219 C 201.445312 79.199219 196.425781 84.21875 196.425781 90.390625 C 196.425781 95.257812 199.554688 99.398438 203.902344 100.933594 L 203.902344 143.734375 C 203.902344 145.78125 205.566406 147.445312 207.613281 147.445312 C 209.667969 147.445312 211.328125 145.78125 211.328125 143.734375 L 211.328125 100.933594 C 211.738281 100.789062 212.136719 100.625 212.523438 100.433594 L 229.214844 130.785156 C 227.21875 132.804688 225.980469 135.582031 225.980469 138.640625 C 225.980469 144.808594 231.003906 149.828125 237.175781 149.828125 C 243.347656 149.828125 248.363281 144.808594 248.363281 138.640625 C 248.363281 132.46875 243.347656 127.449219 237.175781 127.449219 " fill-opacity="1" fill-rule="nonzero"/><path fill="#737373" d="M 70.40625 39.152344 C 71.128906 39.875 72.082031 40.242188 73.03125 40.242188 C 73.980469 40.242188 74.933594 39.875 75.65625 39.152344 C 77.109375 37.703125 77.109375 35.351562 75.65625 33.902344 L 58.191406 16.4375 C 56.742188 14.984375 54.390625 14.984375 52.941406 16.4375 C 51.488281 17.886719 51.488281 20.238281 52.941406 21.6875 L 70.40625 39.152344 " fill-opacity="1" fill-rule="nonzero"/><path fill="#737373" d="M 28.414062 140.523438 L 3.710938 140.523438 C 1.664062 140.523438 0 142.183594 0 144.234375 C 0 146.289062 1.664062 147.945312 3.710938 147.945312 L 28.414062 147.945312 C 30.464844 147.945312 32.128906 146.289062 32.128906 144.234375 C 32.128906 142.183594 30.464844 140.523438 28.414062 140.523438 " fill-opacity="1" fill-rule="nonzero"/><path fill="#737373" d="M 70.40625 249.316406 L 52.941406 266.78125 C 51.488281 268.230469 51.488281 270.582031 52.941406 272.03125 C 53.667969 272.757812 54.617188 273.121094 55.566406 273.121094 C 56.515625 273.121094 57.464844 272.757812 58.191406 272.03125 L 75.65625 254.566406 C 77.109375 253.117188 77.109375 250.769531 75.65625 249.316406 C 74.207031 247.867188 71.855469 247.867188 70.40625 249.316406 " fill-opacity="1" fill-rule="nonzero"/><path fill="#737373" d="M 291.09375 249.316406 C 289.640625 247.867188 287.296875 247.867188 285.84375 249.316406 C 284.390625 250.769531 284.390625 253.117188 285.84375 254.566406 L 303.308594 272.03125 C 304.035156 272.757812 304.984375 273.121094 305.933594 273.121094 C 306.882812 273.121094 307.832031 272.757812 308.558594 272.03125 C 310.007812 270.582031 310.007812 268.230469 308.558594 266.78125 L 291.09375 249.316406 " fill-opacity="1" fill-rule="nonzero"/><g clip-path="url(#ae9e16ea1c)"><path fill="#737373" d="M 357.789062 140.523438 L 333.085938 140.523438 C 331.035156 140.523438 329.371094 142.183594 329.371094 144.234375 C 329.371094 146.289062 331.035156 147.945312 333.085938 147.945312 L 357.789062 147.945312 C 359.835938 147.945312 361.5 146.289062 361.5 144.234375 C 361.5 142.183594 359.835938 140.523438 357.789062 140.523438 " fill-opacity="1" fill-rule="nonzero"/></g><path fill="#737373" d="M 303.308594 16.4375 L 285.84375 33.902344 C 284.390625 35.351562 284.390625 37.703125 285.84375 39.152344 C 286.566406 39.875 287.519531 40.242188 288.46875 40.242188 C 289.417969 40.242188 290.367188 39.875 291.09375 39.152344 L 308.558594 21.6875 C 310.007812 20.238281 310.007812 17.886719 308.558594 16.4375 C 307.109375 14.984375 304.757812 14.984375 303.308594 16.4375 " fill-opacity="1" fill-rule="nonzero"/></svg>